# xmcd CD database file
#
# Track frame offsets:
#	150
#	3841
#	9946
#	29523
#	48189
#	71577
#	91752
#	111233
#	115601
#	139639
#	164583
#	183270
#	204856
#	209180
#	230926
#	252209
#	256462
#	273060
#	292413
#	310764
#
# Disc length: 4396 seconds
#
# Revision: 0
# Processed by: cddbd v1.5.1PL0 Copyright (c) Steve Scherf et al.
# Submitted via: CDex 1.51
#
DISCID=1a112a14
DTITLE=DJ MASTERKEY - DADDY'S HOUSE VOL.3
DYEAR=2005
DGENRE=Hip Hop
TTITLE0=DADDY'S HOUSE Intro feat. DJ KAORI
TTITLE1=DADDY IS BACK
TTITLE2=DON'T GET IT TWISTED feat. GICODE(SPHERE of INFLUENCE and SORA SANZEN)
TTITLE3=STRICTRY BUSINESS feat. DOBERMAN INC
TTITLE4=BE MY LADY feat. DABO and JiN a.k.a. Bluezy
TTITLE5=サイコロ52 pt.2 feat. CQ and NIPPS
TTITLE6=THE TRAINING DAY feat. ZEEBRA,UZI,OJ&ST,KM-MARKIT,CHINO
TTITLE7=Interlude 1
TTITLE8=オデマシ feat. DELI,MARS MANIE,MIKRIS,KEN WHELL
TTITLE9=RHYME LINE feat. MURO and BOO
TTITLE10=IN THE WORLD(for the boys and girls) feat. DJ KAORI and DOUBLE
TTITLE11=MEMORIAL DATE feat. MIC BANK
TTITLE12=Skit
TTITLE13=ONE SHOT feat. DIRTY SLY and MIKO
TTITLE14=HOLIDAY feat. CHRIS and AI
TTITLE15=Interlude 2
TTITLE16=HIKARI feat. BAMBOO
TTITLE17=デイ アフター トゥモロー feat. K DUB SHINE,DJ OASIS,童子-T
TTITLE18=HEY DADDY feat. HI-TIMEZ
TTITLE19=AT THA PARTY feat. KAYZABRO(DS455) and BIG RON
EXTD=YEAR: 2005
EXTT0=
EXTT1=
EXTT2=
EXTT3=
EXTT4=
EXTT5=
EXTT6=
EXTT7=
EXTT8=
EXTT9=
EXTT10=
EXTT11=
EXTT12=
EXTT13=
EXTT14=
EXTT15=
EXTT16=
EXTT17=
EXTT18=
EXTT19=
PLAYORDER=
